<svg xmlns="http://www.w3.org/2000/svg" width="197" height="220" viewBox="0 0 197 220"><path d="M96,0h0a0,0,0,0,1,0,0V168a0,0,0,0,1,0,0H21.622A21.622,21.622,0,0,1,0,146.378V96A96,96,0,0,1,96,0Z" fill="#8181ff"/><path d="M33.032,0H49a0,0,0,0,1,0,0V45a0,0,0,0,1,0,0H11.968A11.968,11.968,0,0,1,0,33.032v0A33.032,33.032,0,0,1,33.032,0Z" transform="translate(150 220) rotate(180)" fill="#8181ff"/><path d="M21.622,0H96a0,0,0,0,1,0,0V168a0,0,0,0,1,0,0h0A96,96,0,0,1,0,72V21.622A21.622,21.622,0,0,1,21.622,0Z" transform="translate(197 168) rotate(180)" fill="#fff"/><path d="M12.162,0H48a0,0,0,0,1,0,0V45a0,0,0,0,1,0,0H32.838A32.838,32.838,0,0,1,0,12.162v0A12.162,12.162,0,0,1,12.162,0Z" transform="translate(48 175)" fill="#fff"/></svg>